<svg height="2048" width="2048" xmlns="http://www.w3.org/2000/svg" shape-rendering="geometricPrecision" text-rendering="geometricPrecision" image-rendering="optimizeQuality" fill-rule="evenodd" clip-rule="evenodd"><path d="M1582.48 1627.13l120.816-1353.38 1.585-17.752H343.115l1.582 17.752 120.689 1353.6 1.006 11.285 10.872 3.018L1018.852 1792h8.685l543.064-150.568 10.87-3.014 1.008-11.29zM1025.111 555.45h395.75l-11.913 138.491-390.414 173.558 6.577 31.226h366.39l-42.174 483.261-325.538 90.259-325.432-90.107-20.667-231.443h134l10.737 117.345 1.042 11.374 11.027 2.93 186.463 49.538 8.493-.063 184.316-51.232 10.979-3.053.963-11.315 18.428-216.732 1.504-17.688h-578.96l-12.198-139.091 377.014-161.362 26.761-11.469-6.386-31.353H637.301L625.49 555.45h399.62z" fill="#424242"/><path fill="none" d="M0 0h2048v2048H0z"/></svg>