<svg viewBox="0 0 48 48" xmlns="http://www.w3.org/2000/svg"><g fill="#303030"><path d="M33.418 26.898c-.006-1.817-.013-3.635-.026-5.453a8.684 8.684 0 00-.325-2.308c-.383-1.348-1.1-2.234-2.193-2.708-1.2-.52-2.464-.62-3.76-.304a4.394 4.394 0 00-2.048 1.124c0-.12.003-.24.006-.359.001-.075.007-.303-.156-.469s-.384-.159-.465-.165c-1.084.008-2.169.008-3.252 0-.12.018-.32.015-.465.159-.16.16-.16.384-.16.457.005 3.999.005 7.999 0 11.998 0 .129.016.317.161.46.142.141.325.159.454.159h.007a226.67 226.67 0 013.4 0h.014c.127 0 .306-.019.445-.156.144-.143.16-.333.159-.462-.008-1.9-.01-3.798 0-5.697.002-.459.03-.919.084-1.367.06-.5.22-.888.49-1.182.325-.352.752-.478 1.434-.485.746.014 1.173.337 1.385 1.045.151.506.164 1.043.164 1.595l.001 6.063c0 .473.167.64.637.642h3.32c.227 0 .406 0 .553-.147.145-.146.145-.33.144-.545l-.008-1.895zM18.754 16.413c-.144-.144-.336-.15-.466-.158-1.127.01-2.253.01-3.379.001-.127.02-.326.014-.473.159-.146.145-.163.336-.163.47.006 3.99.006 7.983 0 11.973 0 .133.017.326.163.472a.52.52 0 00.235.132c.042.012.079.01.119.014.035.004.073.013.103.013h.014a237.73 237.73 0 013.378 0h.014c.13 0 .315-.019.455-.157.145-.145.161-.34.16-.473a990.49 990.49 0 01-.005-4.667v-2.62c0-1.562-.001-3.123.005-4.685.001-.146-.017-.33-.16-.474zm-2.146-6.323h-.018a2.606 2.606 0 00-2.615 2.624v.001c0 .699.287 1.382.787 1.877.49.486 1.132.752 1.81.752h.026c1.503-.015 2.635-1.146 2.632-2.632a2.616 2.616 0 00-.762-1.872 2.614 2.614 0 00-1.86-.75zm16.438 25.717c.107-.116.246-.142.396-.14.21.005.34.102.4.302.038.13.041.263.041.396v1.414c0 .066.003.068.068.068h.774c.08 0 .081 0 .08-.08-.002-.57-.003-1.142-.007-1.713a1.935 1.935 0 00-.073-.517c-.073-.258-.212-.468-.465-.578a1.27 1.27 0 00-.825-.067.957.957 0 00-.578.406c0-.103-.002-.206 0-.309.002-.047-.013-.065-.062-.064-.253.002-.507.002-.76 0-.046 0-.063.012-.063.062v2.798c0 .048.015.063.062.063.265-.002.53-.002.795 0 .048 0 .062-.015.061-.063-.001-.443-.002-.886 0-1.329 0-.11.008-.22.02-.328a.556.556 0 01.136-.32zm-1.689-.882c-.263.002-.526.002-.789 0-.05 0-.066.013-.066.065.002.93.002 1.862 0 2.793 0 .05.016.065.066.065.263-.002.526-.002.789 0 .05 0 .065-.014.064-.065-.002-.465 0-.93 0-1.394 0-.466-.002-.933 0-1.399 0-.05-.013-.066-.064-.065zm-.396-1.438a.531.531 0 000 1.062.525.525 0 00.534-.532.521.521 0 00-.534-.53zm-2.47 1.708a.854.854 0 00-.332-.234c-.513-.198-1.22-.068-1.571.558-.307.545-.315 1.12-.053 1.684.233.503.694.755 1.243.7.321-.031.588-.17.77-.448.006-.01.017-.018.034-.036l.039.423h.805V33.81h-.935v1.385zm-.023 1.573a.525.525 0 01-.44.418.58.58 0 01-.6-.268c-.122-.204-.143-.428-.122-.659a.902.902 0 01.149-.44.58.58 0 01.616-.231.538.538 0 01.41.449c.016.109.013.602-.013.731zm-7.784-2.958v4.033h.921v-.851a.126.126 0 01.017-.065c.068-.09.14-.179.215-.273l.036.058c.22.362.44.724.658 1.086.022.037.046.05.088.05.337-.002.675-.001 1.012-.001h.07l-1.218-1.728 1.058-1.168c-.013-.005-.016-.008-.02-.008h-1.053c-.02 0-.047.02-.06.037l-.77 1.09-.035.044v-2.305h-.919z"/><path d="M25.079 36.682c.347 0 .694.002 1.041.004.043 0 .06-.01.066-.057a1.988 1.988 0 00-.063-.872c-.115-.365-.333-.64-.695-.787a1.5 1.5 0 00-.699-.091c-.435.036-.795.215-1.05.576-.288.405-.358.858-.267 1.339.066.354.243.642.545.846.261.176.556.254.866.26.23.005.462-.012.692-.036.18-.019.356-.068.527-.143l-.121-.606c-.015.003-.025.004-.034.007a2.495 2.495 0 01-.882.11 1.002 1.002 0 01-.456-.12.521.521 0 01-.289-.43l.048-.001.77.001zm-.822-.627c.016-.392.365-.662.727-.563.213.059.307.22.35.423a.725.725 0 01.011.08c.002.018 0 .036 0 .06h-1.088zm-3.96 1.788l.002-.05c0-.516.002-1.032-.001-1.548 0-.11-.008-.22-.026-.328-.082-.513-.392-.867-.92-.914-.362-.032-.67.07-.895.372l-.046.062a.885.885 0 01-.011-.004v-.366h-.922v2.775h.923v-1.593c0-.15.057-.273.159-.38.191-.204.67-.23.777.2.027.104.036.216.037.325.003.459.001.918.001 1.377v.072h.922zm-7.103.001h2.553v-.833h-1.63V33.81h-.923v4.034zm2.929-.002h.919v-2.775h-.92v2.775zm.459-4.122c-.017.002-.049.002-.08.006-.19.027-.338.116-.406.302a.462.462 0 00.098.502c.124.133.285.163.458.149a.474.474 0 00.444-.567c-.04-.235-.234-.386-.514-.391z"/></g></svg>