<svg height="100" width="100" xmlns="http://www.w3.org/2000/svg"><path d="M20 0C8.92 0 0 8.92 0 20v60c0 11.08 8.92 20 20 20h60c11.08 0 20-8.92 20-20V20c0-11.08-8.92-20-20-20H20zm-1.373 21.096h62.746c3.642 0 6.682 3.042 6.682 6.683v44.444c0 3.641-3.04 6.681-6.682 6.681H18.627c-3.642 0-6.682-3.04-6.682-6.681V27.779c0-3.641 3.04-6.683 6.682-6.683zm4.025 7l27.352 28.31 27.475-28.31H22.652zm-3.707 3.36v36.439l17.907-17.907-17.907-18.533zm62.11.134L63.05 50.14l18.004 18.005V31.59zM40.326 53.584l-18.32 18.32h55.738L59.568 53.73l-7.773 8.011a2.5 2.5 0 01-3.594-.004l-7.875-8.152z"/></svg>