<svg height="512" width="512" xmlns="http://www.w3.org/2000/svg"><path d="M76.629.612c-9.907 1.095-21.073 4.653-30.87 9.743C22.714 22.506 5.582 46.152 1.04 72.205.055 77.736 0 85.179 0 257.21v179.257l1.259 5.583c7.882 35.633 33.06 60.811 68.692 68.693l5.583 1.259h360.157l5.583-1.26c35.632-7.88 60.81-33.06 68.692-68.692l1.26-5.583V257.21c0-172.032-.056-179.476-1.04-185.004-1.37-7.991-4.106-16.038-8.266-24.357C488.948 21.74 462.894 3.678 433.666.503c-6.678-.712-350.578-.657-357.037.11zm195.568 91.025c18.83 2.353 34.045 6.896 50.74 15.052 16.42 8.046 26.93 15.654 40.832 29.502 13.027 13.082 20.252 22.989 27.915 38.37 10.673 21.455 16.749 46.962 17.789 75.041.383 9.579.11 11.713-2.08 14.45-4.16 5.31-13.3 4.434-16.42-1.532-.986-1.97-1.26-3.668-1.588-11.33-.547-11.769-1.368-19.377-3.01-28.463-6.46-35.632-23.537-64.095-50.795-84.51-22.715-17.078-46.196-25.398-76.957-27.204-10.4-.602-12.206-.985-14.56-2.791-4.378-3.449-4.597-11.55-.383-15.326 2.573-2.354 4.38-2.682 13.301-2.409 4.652.165 11.494.712 15.216 1.15zm-125.124 5.911c1.916.657 4.871 2.19 6.568 3.284 10.4 6.897 39.355 43.953 48.824 62.453 5.419 10.564 7.225 18.39 5.528 24.193-1.751 6.24-4.652 9.524-17.625 19.978-5.2 4.215-10.07 8.539-10.837 9.688-1.97 2.846-3.558 8.43-3.558 12.37.055 9.141 5.966 25.726 13.739 38.48 6.02 9.906 16.803 22.605 27.477 32.347 12.534 11.495 23.59 19.322 36.07 25.507 16.037 7.991 25.835 10.016 33.005 6.678 1.806-.821 3.722-1.916 4.324-2.409.548-.492 4.762-5.637 9.36-11.33 8.867-11.166 10.892-12.972 16.968-15.052 7.717-2.627 15.6-1.916 23.536 2.135 6.02 3.12 19.157 11.275 27.641 17.186 11.166 7.828 35.03 27.313 38.26 31.2 5.692 7.006 6.678 15.982 2.846 25.89-4.05 10.454-19.814 30.049-30.816 38.423-9.962 7.554-17.022 10.455-26.327 10.892-7.663.384-10.838-.273-20.635-4.324-76.848-31.691-138.206-78.982-186.92-143.953-25.452-33.936-44.829-69.13-58.074-105.638-7.718-21.292-8.101-30.543-1.752-41.435 2.737-4.598 14.395-15.982 22.88-22.332 14.121-10.509 20.634-14.395 25.834-15.49 3.558-.766 9.743-.164 13.684 1.26zm128.901 33.772c33.224 4.871 58.95 20.306 75.808 45.375 9.47 14.122 15.38 30.706 17.406 48.495.711 6.514.711 18.391-.055 20.362-.712 1.86-3.01 4.378-4.98 5.418-2.136 1.095-6.679.986-9.196-.328-4.215-2.135-5.474-5.528-5.474-14.724 0-14.176-3.667-29.119-10.016-40.723-7.225-13.245-17.735-24.192-30.543-31.8-11.001-6.569-27.258-11.44-42.09-12.644-5.365-.438-8.32-1.533-10.346-3.887-3.12-3.557-3.448-8.374-.82-12.37 2.846-4.433 7.224-5.145 20.306-3.174zm11.659 41.325c10.782 2.299 19.047 6.404 26.108 13.027 9.086 8.593 14.067 18.993 16.256 33.935 1.478 9.743.876 13.575-2.572 16.75-3.23 2.955-9.196 3.064-12.808.273-2.627-1.97-3.448-4.05-4.05-9.688-.712-7.499-2.026-12.753-4.27-17.625-4.816-10.345-13.3-15.709-27.641-17.46-6.732-.821-8.758-1.588-10.947-4.16-3.996-4.762-2.463-12.48 3.065-15.326 2.08-1.04 2.956-1.15 7.554-.876 2.846.164 7.06.657 9.305 1.15z" fill="#4A4A4A" fill-rule="evenodd"/></svg>