<svg height="60" width="60" xmlns="http://www.w3.org/2000/svg"><path d="M44.547 29.911h4.68c-.144-1.273-1.059-2.208-2.248-2.208-1.338 0-2.142.857-2.432 2.208zm-7.174 4.13c1.7-.02 2.12-1.791 2.12-3.085 0-1.637-.696-3.004-2.12-3.024-1.558-.021-2.142 1.444-2.142 3.024 0 1.428.514 3.085 2.142 3.085zm18.204-7.125c0-1.612-1.252-2.914-2.802-2.914-.8 0-1.519.347-2.028.906a7.093 7.093 0 00-8.387.029 2.907 2.907 0 00-3.633-.355c-1.095-2.032-3.182-3.404-5.58-3.404-2.193 0-4.125 1.143-5.282 2.885a5.203 5.203 0 00-3.81-1.673c-.989 0-1.911.282-2.704.771-.02-1.962-1.55-3.546-3.441-3.546-1.903 0-3.445 1.604-3.445 3.58l.008.138a7.22 7.22 0 00-4.266.624 3.685 3.685 0 00-1.797-.47c-2.092 0-3.795 1.768-3.795 3.947a4.01 4.01 0 001.24 2.91c-.02.237-.031.477-.031.718 0 4.317 3.367 7.814 7.519 7.814 1.612 0 3.108-.53 4.331-1.428 1.103 1.567 2.881 2.591 4.89 2.591.05 0 .098-.004.145-.008.58 1.71 2.139 2.934 3.979 2.934 1.86 0 3.441-1.257 3.998-3 .64 1.262 1.907 2.119 3.371 2.119 1.829 0 3.356-1.343 3.724-3.13.263.036.534.061.805.061 1.491 0 2.845-.588 3.876-1.547a7.087 7.087 0 004.109 1.315c4.046 0 7.322-3.412 7.322-7.62a7.74 7.74 0 00-.145-1.517c1.067-.412 1.83-1.477 1.83-2.73zm-3.822 3.395c0 .95-.275 1.195-1.173 1.195h-6.035c0 1.466.913 2.535 2.468 2.535 2.013 0 2.013-1.371 3.092-1.371.64 0 1.098.571 1.098 1.085 0 1.673-2.581 2.452-4.19 2.452-3.037 0-4.537-1.738-4.988-3.688-.404 2.044-1.692 3.688-3.98 3.688-1.223 0-2.137-.513-2.631-1.407h-.04v3.71c0 .913-.53 1.39-1.334 1.39-.805 0-1.334-.477-1.334-1.39V28.16l-3.003 8.848c-.639 1.901-1.373 2.893-3.056 2.893-1.189 0-1.684-.609-1.684-1.278 0-.743.514-1.122 1.229-1.122h.274c.346 0 .73-.016.93-.873l-2.778-8.239c-.098-.298-.172-.522-.227-.71a3.035 3.035 0 01-.217.253l-1.973 2.15 2.782 3.881c.09.13.275.437.275.894 0 .706-.55 1.35-1.264 1.35a1.362 1.362 0 01-1.208-.644l-2.524-3.714-.933.857v2.114c0 .91-.53 1.387-1.335 1.387-.808 0-1.338-.477-1.338-1.387v-1.024c-.478 1.64-2.264 2.411-3.987 2.411-2.413 0-4.426-1.122-4.426-2.493 0-.608.33-1.159 1.08-1.159 1.153 0 1.263 1.714 3.236 1.714.95 0 1.554-.44 1.554-1.008 0-.706-.584-.82-1.534-1.069l-1.573-.396c-1.554-.4-2.763-1.069-2.763-2.934 0-2.26 2.159-3.1 4.006-3.1 2.029 0 4.081.84 4.081 2.113 0 .648-.424 1.216-1.118 1.216-1.044 0-1.08-1.274-2.762-1.274-.934 0-1.538.266-1.538.857 0 .645.604.8 1.428.988l1.114.27c1.284.302 2.77.828 3.202 2.15v-8.68c0-.91.53-1.387 1.338-1.387.805 0 1.335.478 1.335 1.387v6.317l2.962-3.424c.275-.305.624-.534 1.024-.534.436 0 .899.294 1.123.718a1.278 1.278 0 011.15-.718c.713 0 1.208.42 1.368 1.049l1.723 6.488h.036l1.629-6.296c.184-.707.549-1.24 1.283-1.24.631 0 .996.325 1.189.66.16-.429.517-.66 1.094-.66.789 0 1.209.46 1.209 1.313v.437h.039c.44-1.18 1.519-1.75 2.813-1.75 1.908 0 3.61 1.244 4.07 3.843.518-2.35 2.256-3.844 4.882-3.844 3.072 0 4.83 2.265 4.83 4.55zm.828-4.35h.522s.004 0 .4 1.203l.373-1.203h.517v1.75h-.345s-.003 0-.003-1.24l-.413 1.24h-.287s-.003 0-.415-1.228v1.229h-.35v-1.75zm-1.57.322v-.322h1.377v.322h-.502v1.429h-.373v-1.429h-.502z" fill-rule="evenodd"/></svg>