<?xml version="1.0" standalone="no"?>
<!DOCTYPE svg PUBLIC "-//W3C//DTD SVG 20010904//EN"
 "http://www.w3.org/TR/2001/REC-SVG-20010904/DTD/svg10.dtd">
<svg version="1.0" xmlns="http://www.w3.org/2000/svg"
 width="256.000000pt" height="256.000000pt" viewBox="0 0 256.000000 256.000000"
 preserveAspectRatio="xMidYMid meet">
<metadata>
Created by potrace 1.11, written by Peter Selinger 2001-2013
</metadata>
<g transform="translate(0.000000,256.000000) scale(0.100000,-0.100000)"
fill="#000000" stroke="none">
<path d="M1620 2413 c-213 -220 -195 -192 -231 -335 l-33 -128 -106 0 c-189 0
-417 -25 -477 -53 -87 -39 85 -93 376 -118 120 -10 178 -10 296 0 227 20 395
60 395 94 0 29 -98 54 -249 63 -55 4 -105 10 -112 15 -10 6 -6 31 16 112 l29
104 133 147 134 148 -32 24 c-18 13 -35 24 -39 24 -3 0 -48 -44 -100 -97z
m-195 -545 c14 6 25 8 25 3 0 -5 -12 -12 -26 -15 -29 -8 -94 2 -94 14 0 5 16
3 35 -3 25 -7 42 -7 60 1z"/>
<path d="M745 1807 c4 -21 13 -107 36 -377 6 -69 13 -131 15 -139 2 -7 18 14
34 47 35 69 100 146 141 167 47 25 101 19 132 -13 28 -29 36 -75 16 -88 -6 -4
-26 9 -44 29 -41 44 -61 41 -113 -18 -85 -96 -145 -283 -97 -301 36 -14 126
77 155 158 16 44 26 58 41 58 11 0 22 -7 25 -15 5 -13 -40 -173 -82 -292 -16
-44 -41 -63 -51 -37 -5 15 0 57 13 103 7 23 5 23 -35 -9 -30 -24 -52 -34 -77
-34 l-35 0 5 -58 c3 -32 9 -85 12 -118 l6 -60 -106 0 -106 0 0 -215 0 -215
164 0 164 0 6 -31 c3 -17 6 -50 6 -73 0 -22 3 -65 7 -95 l6 -53 63 -30 c91
-42 157 -58 251 -58 90 0 175 22 246 64 l45 25 7 126 7 125 164 0 164 0 0 215
0 215 -105 0 -106 0 6 53 c4 28 11 85 16 125 5 40 9 87 9 105 l0 31 -27 -26
c-53 -49 -117 -64 -143 -33 -16 19 -6 46 41 102 21 26 39 51 39 55 0 18 -30 6
-60 -24 -37 -38 -66 -92 -105 -198 -33 -88 -41 -100 -67 -100 -37 0 -35 19 16
132 l25 57 -32 -19 c-36 -22 -67 -26 -84 -9 -8 8 -20 8 -46 -2 -42 -15 -67 -7
-67 22 0 20 -1 20 -31 -5 -33 -28 -86 -35 -107 -14 -19 19 -14 53 19 138 29
77 50 102 77 93 17 -7 15 -28 -9 -76 -29 -55 -40 -95 -28 -102 19 -12 55 27
94 101 43 82 58 96 73 67 8 -13 4 -33 -14 -73 -26 -63 -30 -100 -10 -100 23 0
37 26 103 193 35 89 70 168 77 175 14 14 46 6 46 -12 0 -6 -29 -83 -65 -170
-36 -87 -65 -165 -65 -173 0 -36 115 63 125 108 3 15 15 35 25 44 18 16 19 16
32 -4 12 -20 13 -20 33 -2 31 29 69 34 95 13 30 -24 23 -54 -30 -121 -22 -28
-36 -51 -31 -51 5 0 33 20 63 45 l55 45 7 73 c4 39 19 180 35 312 15 132 27
242 25 244 -1 1 -24 -4 -51 -12 -246 -80 -729 -81 -992 -3 -51 15 -51 15 -46
-7z m245 -1213 l0 -145 -37 3 -38 3 -3 108 -3 108 -32 -3 -32 -3 -3 -107 -3
-108 -69 0 -70 0 0 145 0 145 145 0 145 0 0 -146z m360 1 l0 -145 -75 0 -75 0
0 -35 0 -35 -70 0 -70 0 0 180 0 180 145 0 145 0 0 -145z m500 0 l0 -145 -35
0 -34 0 -3 108 -3 107 -32 3 -32 3 -3 -108 -3 -108 -37 -3 -38 -3 0 110 0 111
-35 0 -35 0 0 -110 0 -110 -70 0 -70 0 0 145 0 145 215 0 215 0 0 -145z"/>
<path d="M1204 656 c-3 -7 -4 -40 -2 -72 3 -59 3 -59 36 -62 l32 -3 0 75 0 76
-30 0 c-17 0 -33 -6 -36 -14z"/>
</g>
</svg>
